HIERARCHY
ROOT hip
{
  OFFSET 0 0 0
  CHANNELS 6 Xposition Yposition Zposition Zrotation Yrotation Xrotation
  JOINT abdomen
  {
    OFFSET 0 20.6881 -0.73152
    CHANNELS 3 Zrotation Xrotation Yrotation
    JOINT chest
    {
      OFFSET 0 11.7043 -0.48768
      CHANNELS 3 Zrotation Xrotation Yrotation
      JOINT neck
      {
        OFFSET 0 22.1894 -2.19456
        CHANNELS 3 Zrotation Xrotation Yrotation
        JOINT head
        {
          OFFSET -0.24384 7.07133 1.2192
          CHANNELS 3 Zrotation Xrotation Yrotation
          JOINT leftEye
          {
            OFFSET 4.14528 8.04674 8.04672
            CHANNELS 3 Zrotation Xrotation Yrotation
            End Site
            {
              OFFSET 1 0 0
            }
          }
          JOINT rightEye
          {
            OFFSET -3.6576 8.04674 8.04672
            CHANNELS 3 Zrotation Xrotation Yrotation
            End Site
            {
              OFFSET 1 0 0
            }
          }
        }
      }
      JOINT rCollar
      {
        OFFSET -2.68224 19.2634 -4.8768
        CHANNELS 3 Zrotation Xrotation Yrotation
        JOINT rShldr
        {
          OFFSET -8.77824 -1.95073 1.46304
          CHANNELS 3 Zrotation Xrotation Yrotation
          JOINT rForeArm
          {
            OFFSET -28.1742 -1.7115 0.48768
            CHANNELS 3 Zrotation Xrotation Yrotation
            JOINT rHand
            {
              OFFSET -22.5879 0.773209 7.07136
              CHANNELS 3 Zrotation Xrotation Yrotation
              JOINT rThumb1
              {
                OFFSET -1.2192 -0.487915 3.41376
                CHANNELS 3 Zrotation Xrotation Yrotation
                JOINT rThumb2
                {
                  OFFSET -3.37035 -0.52449 3.41376
                  CHANNELS 3 Zrotation Xrotation Yrotation
                  End Site
                  {
                    OFFSET -1.78271 -1.18214 1.43049
                  }
                }
              }
              JOINT rIndex1
              {
                OFFSET -7.75947 0.938293 5.60832
                CHANNELS 3 Zrotation Xrotation Yrotation
                JOINT rIndex2
                {
                  OFFSET -2.54057 -0.884171 1.56538
                  CHANNELS 3 Zrotation Xrotation Yrotation
                  End Site
                  {
                    OFFSET -1.62519 -0.234802 1.16502
                  }
                }
              }
              JOINT rMid1
              {
                OFFSET -8.24714 1.18213 3.41376
                CHANNELS 3 Zrotation Xrotation Yrotation
                JOINT rMid2
                {
                  OFFSET -3.10165 -0.590103 1.0647
                  CHANNELS 3 Zrotation Xrotation Yrotation
                  End Site
                  {
                    OFFSET -2.48547 -0.328903 0.83742
                  }
                }
              }
              JOINT rRing1
              {
                OFFSET -8.82822 0.546677 1.51678
                CHANNELS 3 Zrotation Xrotation Yrotation
                JOINT rRing2
                {
                  OFFSET -2.60934 -0.819778 -0.0198488
                  CHANNELS 3 Zrotation Xrotation Yrotation
                  End Site
                  {
                    OFFSET -2.33842 -0.294052 0.168128
                  }
                }
              }
              JOINT rPinky1
              {
                OFFSET -8.27202 -0.0477905 -0.4584
                CHANNELS 3 Zrotation Xrotation Yrotation
                JOINT rPinky2
                {
                  OFFSET -1.82734 -0.647385 -0.700984
                  CHANNELS 3 Zrotation Xrotation Yrotation
                  End Site
                  {
                    OFFSET -1.69225 -0.51767 -0.607171
                  }
                }
              }
            }
          }
        }
      }
      JOINT lCollar
      {
        OFFSET 2.68224 19.2634 -4.8768
        CHANNELS 3 Zrotation Xrotation Yrotation
        JOINT lShldr
        {
          OFFSET 8.77824 -1.95073 1.46304
          CHANNELS 3 Zrotation Xrotation Yrotation
          JOINT lForeArm
          {
            OFFSET 28.1742 -1.7115 0.48768
            CHANNELS 3 Zrotation Xrotation Yrotation
            JOINT lHand
            {
              OFFSET 22.5879 0.773209 7.07136
              CHANNELS 3 Zrotation Xrotation Yrotation
              JOINT lThumb1
              {
                OFFSET 1.2192 -0.487915 3.41376
                CHANNELS 3 Zrotation Xrotation Yrotation
                JOINT lThumb2
                {
                  OFFSET 3.37035 -0.52449 3.41376
                  CHANNELS 3 Zrotation Xrotation Yrotation
                  End Site
                  {
                    OFFSET 1.78271 -1.18214 1.43049
                  }
                }
              }
              JOINT lIndex1
              {
                OFFSET 7.75947 0.938293 5.60832
                CHANNELS 3 Zrotation Xrotation Yrotation
                JOINT lIndex2
                {
                  OFFSET 2.54057 -0.884171 1.56538
                  CHANNELS 3 Zrotation Xrotation Yrotation
                  End Site
                  {
                    OFFSET 1.62519 -0.234802 1.16502
                  }
                }
              }
              JOINT lMid1
              {
                OFFSET 8.24714 1.18213 3.41376
                CHANNELS 3 Zrotation Xrotation Yrotation
                JOINT lMid2
                {
                  OFFSET 3.10165 -0.590103 1.0647
                  CHANNELS 3 Zrotation Xrotation Yrotation
                  End Site
                  {
                    OFFSET 2.48547 -0.328903 0.83742
                  }
                }
              }
              JOINT lRing1
              {
                OFFSET 8.82822 0.546677 1.51678
                CHANNELS 3 Zrotation Xrotation Yrotation
                JOINT lRing2
                {
                  OFFSET 2.60934 -0.819778 -0.0198488
                  CHANNELS 3 Zrotation Xrotation Yrotation
                  End Site
                  {
                    OFFSET 2.33842 -0.294052 0.168128
                  }
                }
              }
              JOINT lPinky1
              {
                OFFSET 8.27202 -0.0477905 -0.4584
                CHANNELS 3 Zrotation Xrotation Yrotation
                JOINT lPinky2
                {
                  OFFSET 1.82734 -0.647385 -0.700984
                  CHANNELS 3 Zrotation Xrotation Yrotation
                  End Site
                  {
                    OFFSET 1.69225 -0.51767 -0.607171
                  }
                }
              }
            }
          }
        }
      }
    }
  }
  JOINT rButtock
  {
    OFFSET -8.77824 4.35084 1.2192
    CHANNELS 3 Zrotation Xrotation Yrotation
    JOINT rThigh
    {
      OFFSET 0 -1.70687 -2.19456
      CHANNELS 3 Zrotation Xrotation Yrotation
      JOINT rShin
      {
        OFFSET 0 -36.8199 0.73152
        CHANNELS 3 Zrotation Xrotation Yrotation
        JOINT rFoot
        {
          OFFSET 0.73152 -45.1104 -5.12064
          CHANNELS 3 Zrotation Xrotation Yrotation
          End Site
          {
            OFFSET -1.1221 -3.69964 12.103
          }
        }
      }
    }
  }
  JOINT lButtock
  {
    OFFSET 8.77824 4.35084 1.2192
    CHANNELS 3 Zrotation Xrotation Yrotation
    JOINT lThigh
    {
      OFFSET 0 -1.70687 -2.19456
      CHANNELS 3 Zrotation Xrotation Yrotation
      JOINT lShin
      {
        OFFSET 0 -36.8199 0.73152
        CHANNELS 3 Zrotation Xrotation Yrotation
        JOINT lFoot
        {
          OFFSET -0.73152 -45.1104 -5.12064
          CHANNELS 3 Zrotation Xrotation Yrotation
          End Site
          {
            OFFSET 1.1221 -3.69964 12.103
          }
        }
      }
    }
  }
}
MOTION
Frames:	6
Frame Time:	0.00833333
236.841 82.3328 -91.6558 13.4844 52.7286 10.8179 -0.325876 14.1982 2.95777 1.66776 -0.885482 1.01591 -4.61945 -4.02887 -8.56441 17.8021 12.1239 -16.5743 -0.0 0.0 0.0 -0.0 0.0 0.0 -2.4551e-14 -1.36528e-12 1.17996e-12 75.897 47.4789 -9.47974 -22.2565 -16.1425 44.5488 -0.340719 -16.3816 -2.36771 -1.21397e-09 4.25201e-09 -3.3974e-09 -2.04771e-09 7.36182e-09 -5.88999e-09 -1.21396e-09 4.25202e-09 -3.39742e-09 7.73091 5.47488 0.417314 -1.21397e-09 4.25201e-09 -3.39741e-09 2.90554 0.965183 0.102902 -1.21396e-09 4.25201e-09 -3.3974e-09 10.2786 0.731801 0.0259123 -1.21397e-09 4.25202e-09 -3.3974e-09 2.22167 -0.733487 -0.20892 -2.4625e-14 -1.36521e-12 1.17978e-12 -73.9987 51.0328 3.97733 19.7716 -12.726 -38.1354 0.237408 -13.6245 1.9533 5.09845e-11 1.10931e-09 -9.66941e-10 9.97862e-11 1.92182e-09 -1.67826e-09 5.09791e-11 1.10931e-09 -9.66943e-10 -7.73091 5.47488 -0.417314 5.09845e-11 1.10931e-09 -9.66944e-10 -2.90554 0.965183 -0.102902 5.09735e-11 1.10931e-09 -9.66946e-10 -10.2786 0.731801 -0.0259123 5.09786e-11 1.10931e-09 -9.66945e-10 -2.22167 -0.733487 0.20892 -2.03217e-16 0.0 -3.88251e-19 16.4599 -3.37554 10.769 0.071809 23.2288 0.570954 -1.0106 -14.922 -1.55885 2.03217e-16 0.0 3.88251e-19 13.8887 -15.1642 -3.28091 0.158304 25.7065 -0.637169 5.18971 -10.9629 16.2657
237.708 82.2537 -91.1957 13.4874 50.2054 11.2409 -1.24666 13.903 3.94865 1.44428 -0.823868 1.24239 -4.22681 -4.2965 -8.35394 17.4873 12.3051 -16.2881 -0.0 0.0 0.0 -0.0 0.0 0.0 -6.83165e-14 -1.7557e-12 1.52672e-12 74.7694 48.4369 -6.96026 -22.9536 -17.2596 46.4514 -0.363321 -16.8934 -2.44624 -1.43473e-09 5.16219e-09 -4.14055e-09 -2.41953e-09 8.93694e-09 -7.17677e-09 -1.43472e-09 5.16219e-09 -4.14057e-09 7.73091 5.47488 0.417314 -1.43473e-09 5.16219e-09 -4.14056e-09 2.90554 0.965183 0.102902 -1.43473e-09 5.16219e-09 -4.14056e-09 10.2786 0.731801 0.0259123 -1.43474e-09 5.16219e-09 -4.14055e-09 2.22167 -0.733487 -0.20892 -6.83529e-14 -1.75563e-12 1.52652e-12 -77.0791 49.2218 7.83892 19.629 -12.5522 -37.7866 0.251798 -14.1434 2.02953 4.11469e-10 1.3187e-09 -1.2465e-09 7.26018e-10 2.2834e-09 -2.15878e-09 4.11463e-10 1.3187e-09 -1.24651e-09 -7.73091 5.47488 -0.417314 4.11468e-10 1.3187e-09 -1.24651e-09 -2.90554 0.965183 -0.102902 4.11458e-10 1.3187e-09 -1.24651e-09 -10.2786 0.731801 -0.0259123 4.11463e-10 1.3187e-09 -1.24651e-09 -2.22167 -0.733487 0.20892 -2.03217e-16 0.0 -3.88251e-19 16.1693 -2.66896 11.6701 0.0664739 23.1225 0.591903 -0.904435 -15.299 -1.11707 2.03217e-16 0.0 3.88251e-19 13.9181 -14.9106 -3.56165 0.123011 22.2303 -0.604086 5.47049 -11.5653 16.7077
238.519 82.141 -90.775 13.3827 48.0268 11.5354 -2.18544 13.7372 4.70971 1.2365 -0.873031 1.40867 -3.76206 -4.45178 -8.1134 17.2101 12.3819 -15.9635 -0.0 0.0 0.0 -0.0 0.0 0.0 -1.30079e-13 -1.49057e-12 1.40307e-12 73.7196 49.5204 -4.55945 -23.6697 -18.5045 48.4913 -0.376454 -17.1645 -2.48821 -1.14737e-09 4.70926e-09 -3.98116e-09 -1.92655e-09 8.14971e-09 -6.89615e-09 -1.14736e-09 4.70926e-09 -3.98117e-09 7.73091 5.47488 0.417314 -1.14737e-09 4.70925e-09 -3.98116e-09 2.90554 0.965183 0.102902 -1.14737e-09 4.70925e-09 -3.98116e-09 10.2786 0.731801 0.0259123 -1.14738e-09 4.70926e-09 -3.98115e-09 2.22167 -0.733487 -0.20892 -1.30097e-13 -1.4905e-12 1.40289e-12 -79.8983 47.7661 11.599 19.6324 -12.5545 -37.8015 0.294364 -15.4559 2.22468 7.96968e-10 1.13115e-09 -1.27841e-09 1.39156e-09 1.95946e-09 -2.20765e-09 7.96963e-10 1.13116e-09 -1.27842e-09 -7.73091 5.47488 -0.417314 7.96967e-10 1.13116e-09 -1.27842e-09 -2.90554 0.965183 -0.102902 7.96959e-10 1.13116e-09 -1.27842e-09 -10.2786 0.731801 -0.0259123 7.96966e-10 1.13116e-09 -1.27842e-09 -2.22167 -0.733487 0.20892 -2.03217e-16 0.0 -3.88251e-19 15.7763 -1.99815 12.5072 0.0598569 23.1964 0.611592 -0.817892 -15.9079 -0.771151 2.03217e-16 0.0 3.88251e-19 13.9425 -14.8557 -3.77906 0.0930578 19.2325 -0.555847 5.26399 -11.6527 16.055
239.346 81.9125 -90.2438 12.7895 45.7712 11.4379 -3.18487 13.6579 5.32215 1.04327 -0.991688 1.53444 -3.24036 -4.52984 -7.8495 16.96 12.3756 -15.609 -0.0 0.0 0.0 -0.0 0.0 0.0 -2.03326e-13 -8.28958e-13 9.88777e-13 72.6752 50.7176 -2.20776 -24.3614 -19.8068 50.6767 -0.37905 -17.2228 -2.49718 -5.83971e-10 3.40398e-09 -3.2577e-09 -9.64936e-10 5.88525e-09 -5.63598e-09 -5.83961e-10 3.40398e-09 -3.25771e-09 7.73091 5.47488 0.417314 -5.83972e-10 3.40398e-09 -3.2577e-09 2.90554 0.965183 0.102902 -5.83964e-10 3.40398e-09 -3.2577e-09 10.2786 0.731801 0.0259123 -5.83976e-10 3.40398e-09 -3.25769e-09 2.22167 -0.733487 -0.20892 -2.03336e-13 -8.28906e-13 9.88659e-13 -82.525 46.4842 15.2786 19.7674 -12.7216 -38.1202 0.369938 -17.3054 2.50599 1.22456e-09 6.26981e-10 -1.11877e-09 2.12697e-09 1.088e-09 -1.92274e-09 1.22456e-09 6.26986e-10 -1.11877e-09 -7.73091 5.47488 -0.417314 1.22456e-09 6.26985e-10 -1.11878e-09 -2.90554 0.965183 -0.102902 1.22456e-09 6.26985e-10 -1.11878e-09 -10.2786 0.731801 -0.0259123 1.22457e-09 6.26985e-10 -1.11878e-09 -2.22167 -0.733487 0.20892 -2.03217e-16 0.0 -3.88251e-19 15.279 -1.37935 13.2975 0.0511394 23.4244 0.628704 -0.752088 -16.6924 -0.524547 2.03217e-16 0.0 3.88251e-19 13.9366 -14.9238 -3.95821 0.0709841 16.5599 -0.497475 4.71327 -11.3805 14.6012
240.067 81.5863 -89.7755 13.1033 43.081 11.8121 -4.10773 13.6453 5.86782 0.862203 -1.12653 1.6459 -2.76922 -4.54534 -7.60465 16.7745 12.2561 -15.2677 -0.0 0.0 0.0 -0.0 0.0 0.0 -2.5123e-13 -1.28979e-13 4.9915e-13 71.5511 51.8598 0.146344 -24.9954 -21.1013 52.8923 -0.377626 -17.203 -2.49398 -4.99679e-11 2.09263e-09 -2.48775e-09 -5.41662e-11 3.61088e-09 -4.29614e-09 -4.9957e-11 2.09263e-09 -2.48776e-09 7.73091 5.47488 0.417314 -4.99686e-11 2.09263e-09 -2.48775e-09 2.90554 0.965183 0.102902 -4.99596e-11 2.09263e-09 -2.48775e-09 10.2786 0.731801 0.0259123 -4.99731e-11 2.09263e-09 -2.48774e-09 2.22167 -0.733487 -0.20892 -2.51234e-13 -1.28945e-13 4.99082e-13 -84.8732 45.3952 18.6701 19.9427 -12.9403 -38.5395 0.466339 -19.1945 2.80187 1.53668e-09 5.14745e-11 -8.9089e-10 2.66197e-09 9.30457e-11 -1.5213e-09 1.53668e-09 5.14792e-11 -8.90889e-10 -7.73091 5.47488 -0.417314 1.53668e-09 5.1479e-11 -8.90899e-10 -2.90554 0.965183 -0.102902 1.53668e-09 5.14783e-11 -8.90899e-10 -10.2786 0.731801 -0.0259123 1.53669e-09 5.14792e-11 -8.90907e-10 -2.22167 -0.733487 0.20892 -2.03217e-16 0.0 -3.88251e-19 14.7841 -0.838197 14.0725 0.0408047 23.806 0.645811 -0.678658 -17.5894 -0.281764 2.03217e-16 0.0 3.88251e-19 13.9302 -15.1481 -4.06626 0.0575408 14.3702 -0.439983 3.98651 -10.9692 12.5755
240.91 81.2531 -89.3348 12.7461 41.2165 11.6961 -4.81525 13.6793 6.42821 0.690629 -1.22427 1.76924 -2.45591 -4.51304 -7.42124 16.6911 11.9932 -14.9833 -0.0 0.0 0.0 -0.0 0.0 0.0 -2.36961e-13 2.51255e-13 1.49486e-13 70.3029 52.7755 2.52356 -25.5605 -22.3552 55.0141 -0.37896 -17.2396 -2.49952 1.492e-10 1.62149e-09 -2.18889e-09 2.86284e-10 2.79393e-09 -3.77649e-09 1.49211e-10 1.62149e-09 -2.1889e-09 7.73091 5.47488 0.417314 1.49199e-10 1.62148e-09 -2.1889e-09 2.90554 0.965183 0.102902 1.49209e-10 1.62149e-09 -2.18889e-09 10.2786 0.731801 0.0259123 1.49195e-10 1.62149e-09 -2.18889e-09 2.22167 -0.733487 -0.20892 -2.36958e-13 2.51273e-13 1.49436e-13 -86.8717 44.5412 21.579 20.0716 -13.1021 -38.854 0.551935 -20.6267 3.0324 1.57575e-09 -3.50074e-10 -7.18083e-10 2.72629e-09 -6.01363e-10 -1.22063e-09 1.57575e-09 -3.5007e-10 -7.1808e-10 -7.73091 5.47488 -0.417314 1.57575e-09 -3.5007e-10 -7.18093e-10 -2.90554 0.965183 -0.102902 1.57575e-09 -3.50071e-10 -7.18093e-10 -10.2786 0.731801 -0.0259123 1.57576e-09 -3.50069e-10 -7.18102e-10 -2.22167 -0.733487 0.20892 -2.03217e-16 0.0 -3.88251e-19 14.3981 -0.400184 14.8635 0.0292772 24.3404 0.665527 -0.56474 -18.5354 0.0541074 2.03217e-16 0.0 3.88251e-19 13.9548 -15.5619 -4.07018 0.0509542 12.8213 -0.393754 3.2268 -10.6491 10.2011
